<svg width="116" height="117" viewBox="0 0 116 117" fill="none" xmlns="http://www.w3.org/2000/svg">
<path d="M57.9143 0C25.8939 0 0 26.0058 0 58.1645C0 90.3233 25.8939 116.33 57.9143 116.33C89.9348 116.33 115.83 90.3233 115.83 58.1645C115.83 26.0058 89.8537 0 57.9143 0Z" fill="#DBDCDE"/>
<path d="M57.9143 0C25.8939 0 0 26.0058 0 58.1645C0 90.3233 25.8939 116.33 57.9143 116.33C89.9348 116.33 115.83 90.3233 115.83 58.1645C115.83 26.0058 89.8537 0 57.9143 0ZM57.9143 113.868C27.2829 113.868 2.45038 88.9295 2.45038 58.1645C2.45038 27.4007 27.2829 2.46096 57.9143 2.46096C88.547 2.46096 113.378 27.4007 113.378 58.1645C113.378 88.9295 88.547 113.868 57.9143 113.868Z" fill="#282828"/>
<path d="M89.2782 58.1633C89.2782 40.7715 75.2276 26.6602 57.9106 26.6602C40.5947 26.6602 26.543 40.7715 26.543 58.1633C26.543 62.3482 27.3613 66.2855 28.8313 69.9764L28.5049 70.3867C28.5049 70.3867 28.9945 71.3713 29.8939 72.3559C30.9553 74.4891 32.2621 76.4572 33.8142 78.345L33.4056 78.8368C33.4056 78.8368 35.0388 82.2823 37.98 82.4463C41.574 82.4463 43.2072 78.8368 43.2072 78.8368C43.2072 78.8368 44.9225 82.5288 48.1091 82.5288C51.2944 82.5288 53.0098 78.8368 53.0098 78.8368C53.0098 78.8368 54.7252 82.5288 57.9106 82.5288C61.0971 82.5288 62.8125 78.8368 62.8125 78.8368C62.8125 78.8368 64.5279 82.5288 67.7132 82.5288C70.8986 82.5288 72.614 78.8368 72.614 78.8368C72.614 78.8368 74.4116 82.4463 77.8423 82.4463C80.7823 82.1998 82.4167 78.8368 82.4167 78.8368L82.0081 78.345C83.5591 76.5397 84.867 74.4891 85.9285 72.3559C86.8278 71.3713 87.3174 70.3867 87.3174 70.3867L86.991 69.9764C88.4931 66.2202 89.2693 62.2111 89.2782 58.1633ZM80.1295 76.7048C79.5577 77.3604 78.1687 78.7554 76.6166 78.7554C73.349 78.7554 72.533 76.2933 72.533 76.2933C72.533 76.2933 70.8986 78.7554 67.6311 78.7554C64.3647 78.7554 62.7303 76.2933 62.7303 76.2933C62.7303 76.2933 61.0971 78.7554 57.8296 78.7554C54.562 78.7554 52.9276 76.2933 52.9276 76.2933C52.9276 76.2933 51.2944 78.7554 48.0269 78.7554C44.7593 78.7554 43.1261 76.2933 43.1261 76.2933C43.1261 76.2933 42.309 78.7554 39.0414 78.7554C37.4904 78.7554 36.1824 77.4418 35.5296 76.7036C34.7935 75.8015 34.1406 74.8995 33.4867 73.9962C36.5088 73.8335 38.1432 70.3053 38.1432 70.3053C38.1432 70.3053 39.8586 73.9962 43.044 73.9962C46.2305 73.9962 47.9459 70.3053 47.9459 70.3053C47.9459 70.3053 49.6612 73.9962 52.8466 73.9962C56.032 73.9962 57.7474 70.3053 57.7474 70.3053C57.7474 70.3053 59.4628 73.9962 62.6493 73.9962C65.8347 73.9962 67.55 70.3053 67.55 70.3053C67.55 70.3053 69.2654 73.9962 72.4508 73.9962C75.6362 73.9962 77.3516 70.3053 77.3516 70.3053C77.3516 70.3053 78.9859 73.7509 82.0081 73.9962C81.5173 74.8995 80.8645 75.8015 80.1295 76.7048ZM85.1124 68.0083C84.8671 68.5 83.8867 70.3053 81.6817 70.3053C78.4141 70.3053 77.5148 67.8444 77.5148 67.8444C77.5148 67.8444 75.8827 70.3053 72.614 70.3053C69.3464 70.3053 67.7132 67.8444 67.7132 67.8444C67.7132 67.8444 66.0801 70.3053 62.8125 70.3053C59.5449 70.3053 57.9106 67.8444 57.9106 67.8444C57.9106 67.8444 56.2774 70.3053 53.0098 70.3053C49.7423 70.3053 48.1091 67.8444 48.1091 67.8444C48.1091 67.8444 46.4747 70.3053 43.2072 70.3053C39.9408 70.3053 38.3064 67.8444 38.3064 67.8444C38.3064 67.8444 37.4082 70.3053 34.1406 70.3053C31.8535 70.3053 30.9553 68.5826 30.7099 68.0083C29.6473 64.9731 28.9945 61.6089 28.9945 58.1633C28.9945 42.0839 41.9814 29.1223 57.9106 29.1223C73.9208 29.1223 86.8278 42.1653 86.8278 58.1633C86.8278 61.6089 86.256 64.8905 85.1124 68.0083Z" fill="#282828"/>
<path d="M67.5544 59.3131V60.2977C67.5544 60.2977 68.2084 61.7741 69.5151 61.7741C70.8231 61.7741 71.4759 60.2977 71.4759 60.2977C71.4759 60.2977 72.1287 61.7741 73.4367 61.7741C74.6613 61.7741 75.3963 60.2977 75.3963 60.2977C75.3963 60.2977 76.0503 61.7741 77.357 61.7741C78.5817 61.7741 79.3178 60.2977 79.3178 60.2977C79.3178 60.2977 79.9706 61.7741 81.2774 61.7741C82.5854 61.7741 83.2382 60.2977 83.2382 60.2977C83.2382 60.2977 83.8922 61.7741 85.1989 61.7741C86.1793 61.7741 86.8321 60.872 86.9953 60.5442C86.9953 60.1338 87.0764 59.806 87.0764 59.3957H67.5555V59.3143L67.5544 59.3131ZM29.081 60.5442C29.3264 60.9545 29.8982 61.7753 30.8786 61.7753C32.1044 61.7753 32.8394 60.2989 32.8394 60.2989C32.8394 60.2989 33.4922 61.7753 34.799 61.7753C36.1069 61.7753 36.7597 60.2989 36.7597 60.2989C36.7597 60.2989 37.4137 61.7753 38.7205 61.7753C39.9451 61.7753 40.6813 60.2989 40.6813 60.2989C40.6813 60.2989 41.3341 61.7753 42.6409 61.7753C43.8666 61.7753 44.6016 60.2989 44.6016 60.2989C44.6016 60.2989 45.2556 61.7753 46.5624 61.7753C47.787 61.7753 48.522 60.2989 48.522 60.2989V59.3131H29M58.9775 36.3438H56.7725V37.5736H58.9775V36.3438Z" fill="#282828"/>
<path d="M48.2778 51.8471C48.2778 51.8471 48.9306 53.3235 50.2374 53.3235C51.4631 53.3235 52.1981 51.8471 52.1981 51.8471C52.1981 51.8471 52.8521 53.3235 54.1589 53.3235C55.3835 53.3235 56.1197 51.8471 56.1197 51.8471C56.1197 51.8471 56.7725 53.3235 58.0793 53.3235C59.305 53.3235 60.04 51.8471 60.04 51.8471C60.04 51.8471 60.694 53.3235 62.0008 53.3235C63.2254 53.3235 63.9604 51.8471 63.9604 51.8471C63.9604 51.8471 64.6144 53.3235 65.9212 53.3235C67.1469 53.3235 67.882 51.8471 67.882 51.8471V58.164H87.1597C87.1597 42.0847 74.1717 29.123 58.2425 29.123L60.2033 35.276L61.5922 36.4246H60.2843V37.6545L61.5922 38.8855H60.3665L66.493 48.5655L69.6783 51.0264H46.4802L49.6656 48.5655L55.7921 38.8855H54.5675L55.8743 37.6545V36.4246H54.5663L55.9553 35.276L57.5897 30.3529H56.0375L56.8547 29.2044H57.3443C41.6605 29.5334 29 42.4125 29 58.2466H48.2778V51.846V51.8471Z" fill="#282828"/>
<path d="M57.9153 24.2832C39.2915 24.2832 24.2617 39.4593 24.2617 58.0822C24.2617 76.7051 39.3714 91.8824 57.9142 91.8824C76.538 91.8824 91.569 76.7051 91.569 58.0822C91.569 39.4593 76.4581 24.2832 57.9153 24.2832ZM57.9153 26.6616C75.2323 26.6616 89.283 40.7729 89.283 58.1647C89.283 61.6103 88.71 64.892 87.7308 68.0086C87.4854 68.7479 86.0964 71.7832 82.4214 71.7832C79.1539 71.7832 77.5195 68.9932 77.5195 68.9932C77.5195 68.9932 75.8863 71.7832 72.6188 71.7832C69.3512 71.7832 67.718 68.9932 67.718 68.9932C67.718 68.9932 66.0837 71.7832 62.8161 71.7832C59.5485 71.7832 57.9153 68.9932 57.9153 68.9932C57.9153 68.9932 56.2821 71.7832 53.0146 71.7832C49.747 71.7832 48.1127 68.9932 48.1127 68.9932C48.1127 68.9932 46.4795 71.7832 43.2119 71.7832C39.9444 71.7832 38.3112 68.9932 38.3112 68.9932C38.3112 68.9932 36.6768 71.7832 33.4093 71.7832C29.7343 71.7832 28.4275 68.7479 28.0999 68.0086C27.1207 64.892 26.5489 61.6103 26.5489 58.1647C26.5489 40.7729 40.5983 26.6616 57.9153 26.6616ZM77.5195 80.2344C74.252 80.2344 72.6188 77.4444 72.6188 77.4444C72.6188 77.4444 70.9844 80.2344 67.718 80.2344C64.4505 80.2344 62.8161 77.4444 62.8161 77.4444C62.8161 77.4444 61.1829 80.2344 57.9153 80.2344C54.6478 80.2344 53.0146 77.4444 53.0146 77.4444C53.0146 77.4444 51.3802 80.2344 48.1127 80.2344C44.8451 80.2344 43.2119 77.4444 43.2119 77.4444C43.2119 77.4444 41.5787 80.2344 38.3112 80.2344C35.289 80.2344 32.7553 76.9527 31.8582 75.6391C31.6129 75.2299 31.2864 74.8195 31.0411 74.4092C31.6939 74.8195 32.5111 75.1474 33.4093 75.1474C36.5958 75.1474 38.3112 71.4553 38.3112 71.4553C38.3112 71.4553 40.0265 75.1474 43.2119 75.1474C46.3973 75.1474 48.1127 71.4553 48.1127 71.4553C48.1127 71.4553 49.8281 75.1474 53.0146 75.1474C56.2 75.1474 57.9153 71.4553 57.9153 71.4553C57.9153 71.4553 59.6307 75.1474 62.8161 75.1474C66.0026 75.1474 67.718 71.4553 67.718 71.4553C67.718 71.4553 69.4334 75.1474 72.6188 75.1474C75.8041 75.1474 77.5195 71.4553 77.5195 71.4553C77.5195 71.4553 79.2349 75.1474 82.4214 75.1474C83.3196 75.1474 84.1368 74.8195 84.7896 74.4092C84.5442 74.8195 84.3 75.2299 83.9724 75.6403C83.0742 76.9527 80.4607 80.2344 77.5195 80.2344ZM39.2094 83.4312C41.7419 82.7744 43.1297 79.903 43.1297 79.903C43.1297 79.903 44.8451 83.5951 48.0317 83.5951C51.217 83.5951 52.9324 79.903 52.9324 79.903C52.9324 79.903 54.6478 83.5951 57.8332 83.5951C61.0197 83.5951 62.7351 79.903 62.7351 79.903C62.7351 79.903 64.4505 83.5951 67.6358 83.5951C70.8212 83.5951 72.5366 79.903 72.5366 79.903C72.5366 79.903 73.9256 82.8557 76.4581 83.4312C71.2298 87.2871 64.7769 89.5842 57.8343 89.5842C50.8895 89.5842 44.4365 87.3685 39.2094 83.4312Z" fill="#282828"/>
<path d="M57.9171 2.46094C27.2856 2.46094 2.45312 27.4007 2.45312 58.1645C2.45312 88.9294 27.2856 113.869 57.9171 113.869C88.5485 113.869 113.381 88.9294 113.381 58.1645C113.381 27.4007 88.5485 2.46094 57.9171 2.46094ZM57.9171 111.408C28.5924 111.407 4.82248 87.5345 4.82248 58.082C4.82248 28.6294 28.5924 4.75683 57.9171 4.75683C87.2418 4.75683 111.013 28.6318 111.013 58.0831C111.013 87.5345 87.1607 111.408 57.9171 111.408Z" fill="#282828"/>
<path d="M44.6799 104.679L46.7229 97.3761L44.8443 97.1296L45.3339 95.3255L48.6015 95.7358L49.0911 95.8986L46.4775 105.169L44.6799 104.679ZM52.8494 106.319L50.7254 106.073L52.604 103.53C50.8076 103.284 49.5008 101.561 49.745 99.6743C49.9904 97.7876 51.6236 96.3926 53.5844 96.6391C54.8102 96.8018 55.7894 97.5412 56.2802 98.6072C56.5255 99.1814 56.6887 99.8382 56.6066 100.495C56.5255 101.151 56.2801 101.725 55.9537 102.134L52.8494 106.319ZM53.0126 101.644C53.424 101.686 53.8352 101.562 54.1566 101.301C54.4779 101.04 54.6833 100.661 54.728 100.249C54.809 99.3465 54.2384 98.5258 53.339 98.4432C52.9276 98.4012 52.5164 98.5243 52.195 98.7856C51.8737 99.047 51.6683 99.4254 51.6236 99.8382C51.5426 100.74 52.1144 101.561 53.0126 101.644ZM58.0765 105.087C57.6691 104.595 57.5048 103.938 57.4237 103.283C57.3427 102.626 57.5048 102.052 57.7501 101.56L60.0373 96.8832L62.1613 96.7205L60.7723 99.5918C62.5699 99.5918 64.1221 100.986 64.2853 102.872C64.4485 104.759 62.9773 106.482 61.0999 106.564C59.8741 106.564 58.7305 105.989 58.0765 105.087ZM59.3023 103.119C59.3833 104.021 60.1195 104.676 61.0177 104.676C61.9159 104.595 62.5687 103.857 62.4877 102.955C62.4511 102.525 62.2538 102.126 61.9355 101.836C61.6172 101.547 61.2016 101.39 60.7723 101.396C59.8741 101.477 59.2213 102.215 59.3023 103.119ZM72.3714 100.001C72.9432 102.134 72.2904 104.513 69.921 105.087C67.5528 105.661 65.8374 103.938 65.3467 101.805L65.1013 100.739C64.5306 98.606 65.1835 96.2264 67.5528 95.6521C69.921 95.079 71.6364 96.8018 72.1272 98.9338L72.3714 100.001ZM67.1442 101.313C67.3896 102.379 68.2056 103.61 69.5124 103.283C70.8204 102.954 70.9014 101.477 70.656 100.411L70.4118 99.3442C70.1664 98.2782 69.3492 97.0471 68.0424 97.3749C66.7345 97.7039 66.6535 99.1803 66.8988 100.246L67.1442 101.313ZM18.6228 25.921C18.945 25.4992 19.3482 25.1467 19.8086 24.8844C20.2689 24.6222 20.7771 24.4555 21.3028 24.3942C21.8286 24.3329 22.3612 24.3784 22.8692 24.5278C23.3771 24.6773 23.85 24.9277 24.2597 25.2642C24.9125 25.7571 25.4033 26.4952 25.6487 27.2334C26.9555 26.9056 28.3433 27.3973 29.488 28.2994C31.4476 29.8583 31.9384 32.5657 30.3041 34.5349L27.7715 37.7341L16.5 28.8737L18.6228 25.921ZM20.3393 28.3819L22.299 29.9397L22.7897 29.284C23.1972 28.7098 23.1161 27.9716 22.5443 27.5612C22.0536 27.0695 21.2364 27.1509 20.829 27.7251L20.3393 28.3819ZM24.5051 31.5811L27.3641 33.7968L28.1801 32.7296C28.7519 31.9089 28.5887 31.0068 27.7715 30.4325C26.9555 29.8583 25.8929 29.7769 25.3211 30.5139L24.5051 31.5811ZM40.5963 17.6348C42.6393 21.0804 42.2307 25.1003 38.7999 27.1509C35.3692 29.2026 31.612 27.7251 29.5691 24.2796C27.5273 20.834 27.9359 16.8141 31.3666 14.7635C34.7974 12.7129 38.5546 14.2718 40.5963 17.6348ZM31.9384 22.8857C33.2452 25.0177 35.287 26.0849 37.411 24.8538C39.5349 23.5414 39.5349 21.2443 38.3092 19.1112C37.0024 16.978 34.9606 15.9121 32.8366 17.1431C30.7127 18.4555 30.7127 20.7526 31.9384 22.8857ZM55.1366 21.9011C55.1366 21.9011 53.4212 22.0639 52.1966 22.2289L48.1929 15.0913L47.7843 23.2949C46.7229 23.5414 45.0075 24.2796 45.0075 24.2796L45.8247 8.77445L47.7032 8.36409L55.1366 21.9011ZM60.6913 21.9011C60.6913 21.9011 59.1403 21.8198 57.9133 21.8198V7.62476H64.2042L63.9588 10.4961H60.6913V21.9011ZM71.229 22.8032L67.7982 21.6547L66.981 22.9683C66.0055 22.7298 65.0253 22.5108 64.041 22.3115L72.5369 9.43124L74.3333 10.0055L73.9247 25.5106C73.9247 25.5106 72.4547 24.7724 71.1468 24.2807L71.2278 22.8044L71.229 22.8032ZM71.3922 16.241L69.4314 19.2751L71.31 19.8505L71.3922 16.241ZM81.358 23.8692L78.4991 28.2994C77.3543 27.4787 76.1297 26.8231 76.1297 26.8231L83.9716 14.5171L87.4834 16.8967C89.6074 18.2916 90.5056 21.2443 89.1178 23.3775C87.7288 25.5106 84.7066 26.0023 82.5826 24.6085L81.358 23.8692ZM84.8698 18.373L82.909 21.4919L84.1348 22.2301C85.033 22.8044 86.3398 22.7218 86.9128 21.8198C87.4834 20.9177 86.9938 19.6052 86.1766 19.1124L84.8687 18.3742L84.8698 18.373ZM93.6099 30.4337C95.3253 32.3204 94.9989 35.4382 93.5289 36.8331C91.6492 38.5559 88.8724 38.3095 87.157 36.4228L84.298 33.305L94.9167 23.4612C95.8161 24.4446 96.7953 25.5118 96.7953 25.5118L92.6295 29.3677L93.6099 30.4337ZM89.1999 34.5361C89.9349 35.2743 90.9142 35.4382 91.6503 34.7825C92.3031 34.1257 92.3031 33.0597 91.6503 32.3204L90.6699 31.2544L88.2196 33.4689L89.1999 34.5361Z" fill="#282828"/>
</svg>
