<svg width="178" height="47" viewBox="0 0 178 47" fill="none" xmlns="http://www.w3.org/2000/svg">
<path fill-rule="evenodd" clip-rule="evenodd" d="M20.2713 46.2661C12.6514 38.8633 8.84121 35.1621 8.84121 35.1621L1.38879 42.5648C0.62216 43.5801 0.820245 45.0274 1.83122 45.7973C2.23061 46.1015 2.71809 46.2661 3.21932 46.2661C3.23182 46.2661 3.24433 46.2661 3.25684 46.2661C8.92832 46.2661 14.5998 46.2661 20.2713 46.2661Z" fill="#282828"/>
<path fill-rule="evenodd" clip-rule="evenodd" d="M27.6406 16.656L11.0562 0L1.79691 9.68681C0.643875 10.8931 0 12.5004 0 14.1726L0 42.5654C0 44.6095 1.65002 46.2667 3.68541 46.2667C2.42442 46.2667 1.40218 45.24 1.40218 43.9736C1.40218 43.3639 1.64393 42.7793 2.074 42.3491" fill="#282828"/>
<path fill-rule="evenodd" clip-rule="evenodd" d="M145.832 28.8474H141.844L137.08 33.6859V28.8474H133.707V42.18H137.08V36.6697L141.924 42.18H145.992L139.729 35.0298L145.832 28.8474Z" fill="#282828"/>
<path fill-rule="evenodd" clip-rule="evenodd" d="M38.8182 32.3083H33.9468V26.3947H38.8182C41.2804 26.3947 42.4046 27.5773 42.4046 29.3514C42.4046 31.1255 41.2804 32.3083 38.8182 32.3083ZM38.9251 23.2227H30.4141V42.039H33.9468V35.4801H38.9251C43.1541 35.4801 45.9376 33.3029 45.9376 29.3514C45.9376 25.3998 43.1541 23.2227 38.9251 23.2227Z" fill="#282828"/>
<path fill-rule="evenodd" clip-rule="evenodd" d="M53.9096 39.3861C51.9292 39.3861 50.0823 37.9614 50.0823 35.5152C50.0823 33.0692 51.9292 31.6447 53.9096 31.6447C55.8902 31.6447 57.7369 33.0692 57.7369 35.5152C57.7369 37.9614 55.8902 39.3861 53.9096 39.3861ZM53.9096 28.4727C50.2697 28.4727 46.6562 30.8383 46.6562 35.5152C46.6562 40.1927 50.2697 42.5579 53.9096 42.5579C57.5498 42.5579 61.163 40.1927 61.163 35.5152C61.163 30.8383 57.5498 28.4727 53.9096 28.4727Z" fill="#282828"/>
<path fill-rule="evenodd" clip-rule="evenodd" d="M69.7715 39.3861C67.7374 39.3861 66.2385 37.9077 66.2385 35.5152C66.2385 33.1498 67.7908 31.6447 69.7715 31.6447C70.976 31.6447 72.0197 32.2091 72.8494 33.4725L75.7399 31.8058C74.7766 29.7358 72.6887 28.4727 69.7982 28.4727C66.0244 28.4727 62.8125 31.2682 62.8125 35.5152C62.8125 39.7624 65.8639 42.5579 69.7982 42.5579C72.6352 42.5579 74.5354 41.2679 75.8738 38.9831L73.0903 37.4509C72.2874 38.5798 71.4308 39.3861 69.7715 39.3861Z" fill="#282828"/>
<path fill-rule="evenodd" clip-rule="evenodd" d="M105.685 36.4009C105.525 38.4436 105.123 38.9008 104.427 38.9008C103.951 38.9008 103.728 38.8478 103.402 38.7622L103.419 42.2126C103.419 42.2126 103.838 42.3412 104.615 42.3412C107.478 42.3412 108.549 40.4865 108.817 36.5352L109.138 31.8849H112.938V42.1532H116.311V28.8474H106.247L105.685 36.4009Z" fill="#282828"/>
<path fill-rule="evenodd" clip-rule="evenodd" d="M92.421 33.7413C92.9028 32.236 94.2409 31.0531 96.0074 31.0531C97.8811 31.0531 99.1391 32.0746 99.4602 33.7413H92.421ZM96.1146 28.4727C92.2605 28.4727 89.1289 31.2951 89.1289 35.5152C89.1289 39.7355 92.2605 42.5579 95.9539 42.5579C98.8714 42.5579 100.718 41.4559 102.056 39.1711L99.3797 37.8271C98.5501 38.8754 97.8007 39.6547 96.0074 39.6547C94.027 39.6547 92.5816 38.3647 92.3675 36.3218H102.592V35.139C102.592 31.2414 99.9152 28.4727 96.1146 28.4727Z" fill="#282828"/>
<path fill-rule="evenodd" clip-rule="evenodd" d="M121.487 33.7413C121.969 32.236 123.307 31.0531 125.074 31.0531C126.947 31.0531 128.205 32.0746 128.527 33.7413H121.487ZM125.181 28.4727C121.327 28.4727 118.195 31.2951 118.195 35.5152C118.195 39.7355 121.327 42.5579 125.02 42.5579C127.938 42.5579 129.784 41.4559 131.123 39.1711L128.446 37.8271C127.616 38.8754 126.867 39.6547 125.074 39.6547C123.093 39.6547 121.648 38.3647 121.434 36.3218H131.658V35.139C131.658 31.2414 128.981 28.4727 125.181 28.4727Z" fill="#282828"/>
<path fill-rule="evenodd" clip-rule="evenodd" d="M76.9258 31.8041H80.8871V42.18H84.2591V31.8041H88.2206V28.8474H76.9258V31.8041Z" fill="#282828"/>
<path fill-rule="evenodd" clip-rule="evenodd" d="M152.691 39.3861C150.71 39.3861 148.864 37.9614 148.864 35.5152C148.864 33.0692 150.71 31.6447 152.691 31.6447C154.671 31.6447 156.518 33.0692 156.518 35.5152C156.518 37.9614 154.671 39.3861 152.691 39.3861ZM152.691 28.4727C149.051 28.4727 145.438 30.8381 145.438 35.5152C145.438 40.1925 149.051 42.5579 152.691 42.5579C156.331 42.5579 159.944 40.1925 159.944 35.5152C159.944 30.8381 156.331 28.4727 152.691 28.4727Z" fill="#282828"/>
<path fill-rule="evenodd" clip-rule="evenodd" d="M173.365 28.8455L169.705 38.1829L166.045 28.8455H161.637V42.154H164.842V33.7287L168.396 42.154H171.014L174.567 33.7287V42.154H177.773V28.8455H173.365Z" fill="#282828"/>
</svg>
