<svg width="153" height="77" viewBox="0 0 153 77" fill="none" xmlns="http://www.w3.org/2000/svg">
<path d="M66.0284 21.0807V31.1865H58.1602V0.685547H70.7129C73.3508 0.685547 76.0799 1.18851 78.3992 3.42921C80.7644 5.71581 81.219 8.27652 81.219 10.8372C81.219 13.2609 80.9007 16.0963 78.5358 18.4282C76.1706 20.7607 73.3508 21.0807 70.9858 21.0807H66.0284ZM66.0284 14.6786H68.6663C69.4851 14.6786 71.0312 14.5874 71.9863 13.7186C72.9415 12.895 72.9871 11.6608 72.9871 10.929C72.9871 10.106 72.8962 9.00833 72.0773 8.18535C71.1678 7.2247 69.7124 7.08764 68.7119 7.08764H66.0284V14.6786Z" fill="#282828"/>
<path d="M97.6821 0.685547C99.9564 0.685547 102.867 1.05145 105.096 3.38394C106.824 5.16695 107.688 7.81945 107.688 10.2431C107.688 12.8497 106.778 15.1357 105.278 16.5993C104.095 17.7423 102.503 18.4282 101.094 18.7029L110.599 31.1865H100.821L93.2706 19.48V31.1865H85.4023V0.685547H97.6821ZM93.2706 14.3586H94.7713C95.9541 14.3586 97.6368 14.0386 98.592 13.1238C99.1832 12.5297 99.5925 11.5231 99.5925 10.5631C99.5925 9.64835 99.2285 8.64242 98.5463 8.0024C97.8188 7.27059 96.4997 6.81352 94.7713 6.81352H93.2706V14.3586Z" fill="#282828"/>
<path d="M139.078 27.3461C135.985 30.318 131.619 31.8728 127.116 31.8728C122.613 31.8728 118.247 30.318 115.154 27.3461C111.925 24.2365 110.379 19.9834 110.379 15.9596C110.379 11.8894 111.925 7.59097 115.154 4.5273C118.247 1.55478 122.613 0 127.116 0C131.619 0 135.985 1.55478 139.078 4.5273C142.307 7.59097 143.853 11.8894 143.853 15.9596C143.853 19.9834 142.307 24.2365 139.078 27.3461ZM120.976 10.1064C119.339 11.7065 118.565 13.9472 118.565 16.0967C118.565 18.7945 119.839 20.6693 120.976 21.767C122.431 23.1847 124.478 24.1906 127.116 24.1906C129.799 24.1906 131.801 23.23 133.21 21.8129C134.621 20.3952 135.666 18.2915 135.666 15.9596C135.666 13.5819 134.621 11.4782 133.21 10.1064C131.528 8.50573 129.208 7.68276 127.116 7.68276C124.933 7.68276 122.613 8.45984 120.976 10.1064Z" fill="#282828"/>
<path d="M44.5479 53.2343C44.7141 53.1218 48.6261 50.3237 48.9313 50.0711C51.5187 47.9302 52.2012 46.6434 51.8162 49.5311C51.502 51.8876 52.12 51.3265 49.9486 53.1857C46.0951 56.4851 37.0367 59.515 32.4803 57.1269C27.7522 54.6489 28.0089 47.4298 28.941 42.8366C25.8824 49.109 26.1007 56.4873 23.6919 56.6252C20.5477 56.8052 21.3741 50.4746 21.9618 47.3798C22.5114 44.4859 24.7248 27.2521 22.6889 27.4958C21.847 27.5965 19.6453 29.5982 19.1781 30.2713C19.1781 30.2713 19.5559 35.3716 19.628 36.8576C19.6912 38.1601 19.7293 39.4741 19.7567 40.7568C19.9139 48.1004 19.3989 56.0548 14.1639 61.4779C11.5713 64.1636 8.26748 66.2427 4.23525 64.1082C1.05074 62.4224 0.12845 58.8958 0.0131635 55.5647C-0.231602 48.4949 2.96244 43.1917 7.47471 37.9252C9.50858 35.5514 13.873 31.0535 16.1997 28.4217C16.6959 27.8605 16.6959 27.8605 16.6959 27.8605C16.3224 26.0788 14.9793 16.8689 11.8736 15.4094C9.63514 14.3574 8.47445 17.3831 6.62039 20.5997C5.1172 23.2075 3.49393 24.0721 2.12781 22.855C-0.397941 20.6048 7.20995 14.7366 8.04511 14.2247C12.5099 11.4885 15.3042 15.2252 16.7183 19.2302C17.3011 20.8809 18.2901 24.6569 18.5809 26.448C18.5809 26.448 18.713 26.2171 20.2485 25.2996C20.8795 24.9226 22.7556 23.7568 24.4864 24.8341C26.488 26.0798 26.0839 29.5301 26.0083 31.5374C25.9312 33.5801 24.7248 43.4323 25.0156 44.8943C26.095 43.8308 32.32 29.2515 32.7227 28.5679C34.1316 26.1759 37.7446 18.032 42.5019 20.3438C46.8644 22.4638 42.981 25.2831 40.1389 28.4217C33.8756 35.3387 31.9669 39.2055 30.8419 44.0858C29.6689 49.1743 34.095 60.3061 44.5479 53.2343ZM2.94407 56.9252C3.386 61.6021 9.09047 63.5851 12.3969 60.2656C15.0269 57.6253 16.5809 53.4903 16.9995 50.3527C17.4625 46.8822 17.6789 42.3179 17.5543 38.9484C17.3812 34.27 17.1267 32.15 17.1267 32.15C17.1267 32.15 10.1065 38.1718 6.06953 44.0497C4.21935 46.7437 2.51998 52.4371 2.94407 56.9252ZM41.0841 22.6466C39.0252 22.129 33.6675 31.7387 33.6679 32.6617C34.3126 32.6616 43.12 23.1583 41.0841 22.6466Z" fill="#282828"/>
<path d="M51.784 56.4627C51.7809 56.4591 51.778 56.4554 51.7754 56.4516C50.0095 53.8751 49.436 52.6554 49.4702 49.4425C49.5056 46.1133 50.0791 43.9503 52.7033 41.4706C56.143 38.2204 59.3933 38.3009 60.8119 39.5773C61.9547 40.6056 62.2709 41.972 61.8214 42.7987C60.0391 46.0762 53.3592 50.6315 53.2339 51.0106C53.0737 51.4953 53.2747 52.5823 53.8869 53.8751C56.0875 58.5218 61.7052 58.3027 62.8982 57.6822C63.8772 57.1731 65.1796 56.6297 65.7233 57.7727C66.8905 60.2265 59.1988 60.5767 57.9328 60.1523C55.6271 59.9021 53.6012 58.5263 51.784 56.4627ZM58.8053 42.4408C59.3473 40.5552 57.4787 40.5934 56.9072 40.8858C54.0502 41.6169 52.5809 46.9534 53.0242 47.3407C53.3523 47.6273 58.2541 44.3582 58.8053 42.4408Z" fill="#282828"/>
<path d="M78.3097 58.8362C76.4353 57.858 75.2719 52.8382 74.4399 52.0866C73.5855 51.3146 71.9966 51.53 71.1598 52.0185C69.9027 52.7524 71.6655 56.8024 71.7467 57.8625C71.8879 59.7076 70.2241 60.5942 68.5996 57.8625C67.7396 56.4163 67.4946 52.7172 67.2224 51.0696C67.0969 50.193 66.2076 42.5096 67.2224 41.1211C67.5393 40.6875 68.2776 40.5449 68.9041 40.5573C70.7075 40.593 70.0968 46.8978 70.3762 48.8419C70.5139 49.7998 73.8462 49.6006 74.0395 48.6525C74.1434 48.1424 74.0661 45.1523 74.0948 44.4301C74.0948 44.2421 73.0907 40.5082 75.3823 40.1706C76.3994 40.0207 76.5807 40.1171 77.3136 40.9224C77.9935 41.6694 77.2108 48.7932 77.4378 50.5058C78.0467 55.1 81.8817 56.9245 82.3591 58.1393C83.5135 61.0766 79.476 60.0048 78.3097 58.8362Z" fill="#282828"/>
<path d="M83.7824 45.6259C84.0533 43.8207 84.945 42.6594 86.0452 42.1076C87.4899 41.383 87.9931 42.8333 87.7692 43.3088C86.5939 45.8055 85.9787 56.5469 88.0231 56.6372C89.0383 56.6821 90.9493 49.1742 91.424 48.1633C91.7345 47.0982 92.6698 46.1591 93.7913 46.1591C94.2893 46.1591 94.9115 47.5364 94.9115 48.1633C94.9115 48.8613 94.0337 56.0037 95.6817 56.686C97.4118 57.4023 99.2356 52.8798 99.8539 51.6086C100.41 50.4645 100.646 45.529 102.129 45.3306C105.398 44.8932 104.067 47.5724 103.631 50.789C103.371 52.7045 105.134 55.3701 106.103 57.0006C107.531 59.4013 108.66 61.0274 109.933 63.8988C112.567 62.9658 118.924 60.5117 120.703 61.4833C122.026 62.2058 121.458 63.7863 120.778 63.7942C118.706 63.8181 112.091 64.7115 110.32 65.7529C109.977 65.9544 110.118 69.2493 108.463 72.9952C106.152 78.2271 98.0575 77.7356 98.2964 73.4564C98.5416 69.0648 104.715 66.3187 107.315 64.7273C108.43 64.045 102.575 55.4894 102.274 54.834C101.692 53.5669 99.0748 58.9193 95.8271 59.1341C93.8725 59.2633 93.2636 57.612 92.9942 56.1623C92.2402 52.1048 92.8946 52.2511 90.6345 56.8594C89.9568 58.2414 88.4594 59.6588 86.9091 59.3133C84.4521 58.7655 83.1759 49.6681 83.7824 45.6259ZM102.568 74.7297C106.733 74.5719 107.639 67.8062 107.557 67.0179C107.531 66.7581 97.5106 74.9212 102.568 74.7297Z" fill="#282828"/>
<path d="M118.614 55.2037C118.014 57.4874 115.242 59.9916 113.022 59.0203C110.504 57.9181 109.23 50.6551 110.863 45.2239C110.95 44.9349 111.485 43.1617 113.05 43.4571C114.275 43.6885 113.075 47.6276 112.768 48.6253C112.26 50.2716 112.766 56.1604 115.025 55.7615C117.922 55.2498 118.94 45.7528 120.451 45.5271C122.897 45.1616 122.85 52.7077 123.303 53.7877C123.991 55.9812 125.363 57.2049 127.647 56.7967C128.857 56.5803 129.084 55.3946 130.196 53.3463C130.87 52.1046 131.944 52.8967 132.095 53.553C132.206 54.0354 132.595 55.3121 132.11 55.7168C129.932 57.5332 127.994 59.3972 126.097 59.4952C124.076 59.5995 122.743 59.2933 121.563 57.4994C120.398 55.7291 121.338 45.8681 118.614 55.2037Z" fill="#282828"/>
<path d="M152.382 54.7124C149.979 53.2381 147.245 55.1742 145.834 55.9074C145.037 56.3216 142.434 58.0538 140.651 55.9828C140.227 55.4896 140.132 54.8259 139.9 54.2168C138.735 51.1512 138.56 46.418 138.745 45.7826C139.465 43.3176 138.203 42.8403 137.175 42.8476C135.639 42.8584 135.355 47.1539 135.355 47.3418C135.288 49.0413 135.807 50.8752 133.171 50.7902C132.972 50.7837 132.763 50.7135 132.631 50.5638C132.218 50.096 132.14 49.0083 131.996 47.4274C131.92 43.0644 131.996 42.1643 130.746 42.1643C129.657 42.1643 128.628 42.5958 128.538 43.6314C128.202 47.5005 129.992 54.4164 130.061 56.0997C130.182 59.0548 133.943 60.7153 133.902 58.087C133.886 57.0656 131.644 52.973 134.391 52.7961C137.536 52.5934 137.167 54.3849 138.782 57.6253C139.825 58.6648 140.693 59.0143 142.738 59.0355L142.746 59.053C144.38 59.1301 155.494 56.6216 152.382 54.7124Z" fill="#282828"/>
</svg>
