<svg width="174" height="58" viewBox="0 0 174 58" fill="none" xmlns="http://www.w3.org/2000/svg">
<path d="M77.9094 18.0645C77.9094 19.0305 77.4381 19.5618 76.736 19.5618C76.0338 19.5618 75.5818 19.0305 75.5818 18.0645H71.7344C71.8113 20.9045 73.4561 22.8945 76.8129 22.8945C79.9389 22.8945 81.6221 20.9142 81.8145 18.0645H77.9094Z" fill="#282828"/>
<path d="M69.8047 37.3837V23.9466H74.258V30.1966C74.2554 30.5201 74.2297 30.8429 74.1811 31.1626H74.335L79.1442 23.8887H83.4436V37.3064H79.0288V30.9791C79.0295 30.6876 79.0552 30.3967 79.1057 30.1097H78.9422L74.0657 37.3837H69.8047Z" fill="#282828"/>
<path d="M60.5951 23.6375C64.808 23.6375 68.0109 26.6321 68.0109 30.7473C68.0109 34.8625 64.8753 37.7798 60.5951 37.7798C56.3149 37.7798 53.2466 34.7755 53.2466 30.7473C53.2349 29.7873 53.4191 28.835 53.7878 27.9492C54.1564 27.0634 54.7018 26.2628 55.3903 25.5967C56.0787 24.9306 56.8957 24.4132 57.7908 24.0762C58.686 23.7393 59.6403 23.59 60.5951 23.6375ZM60.5951 33.5873C60.9596 33.591 61.3209 33.5186 61.6562 33.3749C61.9914 33.2312 62.2933 33.0191 62.5428 32.7522C62.7923 32.4853 62.984 32.1693 63.1057 31.8242C63.2273 31.4791 63.2764 31.1124 63.2498 30.7473C63.2887 30.3732 63.2488 29.995 63.1329 29.6373C63.0169 29.2796 62.8274 28.9504 62.5767 28.671C62.326 28.3915 62.0196 28.1681 61.6774 28.0152C61.3352 27.8622 60.9648 27.7832 60.5903 27.7832C60.2158 27.7832 59.8454 27.8622 59.5032 28.0152C59.161 28.1681 58.8546 28.3915 58.6039 28.671C58.3532 28.9504 58.1637 29.2796 58.0477 29.6373C57.9318 29.995 57.8919 30.3732 57.9308 30.7473C57.9041 31.1132 57.9534 31.4808 58.0757 31.8265C58.198 32.1723 58.3905 32.4887 58.641 32.7558C58.8916 33.0229 59.1946 33.2347 59.531 33.3778C59.8674 33.521 60.2298 33.5923 60.5951 33.5873Z" fill="#282828"/>
<path d="M47.8518 23.9473C47.8518 23.9473 44.1006 28.8545 43.9371 29.0091C43.8666 29.1199 43.7895 29.2264 43.7063 29.3279H43.5524C43.5524 29.3279 43.5524 29.1637 43.3119 29.0091C43.158 28.6903 39.2529 23.9473 39.2529 23.9473H35.7422V37.3843H40.032V31.7719C40.0414 31.448 40.0156 31.1241 39.9551 30.8059H40.109L43.5524 34.8341H43.7832L46.9861 30.8059H47.1304C47.0694 31.1241 47.0404 31.4478 47.0439 31.7719V37.3843H51.3625V23.9473H47.8518Z" fill="#282828"/>
<path d="M95.9466 23.9372C94.8349 23.9154 93.7381 24.1979 92.774 24.7543C91.8099 25.3108 91.0147 26.1203 90.4737 27.096H90.3198C90.4064 26.9243 90.4586 26.7373 90.4737 26.5454C90.7142 23.6474 91.8011 21.329 94.071 20.5369C95.3351 20.1449 96.6194 19.8224 97.9184 19.5709C99.0149 19.3294 100.179 19.0106 100.881 18.8561L100.102 16.5667C98.8514 16.8758 97.678 17.1945 95.812 17.5906C94.8684 17.7364 93.9472 18.0026 93.0707 18.3827C89.56 19.8027 87.9922 22.807 87.9922 28.4967C87.9922 33.6359 90.493 37.6641 95.3407 37.6641C96.2711 37.6862 97.1965 37.5198 98.0614 37.1747C98.9264 36.8296 99.7132 36.313 100.375 35.6557C101.037 34.9983 101.56 34.2138 101.913 33.3489C102.266 32.484 102.441 31.5566 102.429 30.6219C102.506 26.6227 99.9287 23.9372 95.9466 23.9372ZM95.3214 35.394C92.3493 35.394 90.6276 32.6312 90.6276 29.4627C91.0504 28.5212 91.7225 27.7144 92.5705 27.1301C93.4186 26.5458 94.41 26.2066 95.4369 26.1494C98.0916 26.1494 99.8132 27.8109 99.8132 30.7282C99.8465 31.3366 99.7543 31.9453 99.5423 32.5162C99.3304 33.0872 99.0033 33.608 98.5816 34.046C98.1599 34.484 97.6527 34.8299 97.0917 35.0618C96.5307 35.2938 95.928 35.4069 95.3214 35.394Z" fill="#282828"/>
<path d="M106.955 33.4122H106.763C106.858 33.132 106.91 32.8388 106.916 32.5428V23.7715H104.262V37.2085H106.609L114.178 27.5485H114.342C114.243 27.8282 114.188 28.1214 114.178 28.4179V37.1892H116.843V23.7715H114.496L106.955 33.4122Z" fill="#282828"/>
<path d="M127.034 30.3341C127.727 30.1326 128.332 29.7049 128.756 29.1188C129.179 28.5327 129.396 27.8216 129.371 27.098C129.371 24.8859 127.573 23.3789 124.37 23.3789C122.439 23.389 120.558 23.9962 118.984 25.1177L120.003 27.0497C121.141 26.1517 122.538 25.6499 123.985 25.62C125.697 25.62 126.64 26.3349 126.64 27.552C126.64 28.7692 125.784 29.3681 124.456 29.3681H122.34V31.4257H124.687C126.322 31.4257 127.111 31.9763 127.111 33.0872C127.111 34.4299 125.784 35.2993 123.831 35.2993C122.347 35.2578 120.918 34.7284 119.763 33.7924L118.801 35.7244C120.353 36.9549 122.287 37.5978 124.264 37.5405C127.467 37.5405 129.891 35.8789 129.891 33.348C129.883 32.5759 129.583 31.8357 129.053 31.2765C128.523 30.7172 127.802 30.3805 127.034 30.3341Z" fill="#282828"/>
<path d="M141.392 29.3067H134.284V23.7715H131.629V37.2085H134.284V31.4125H141.392V37.2085H144.046V23.7715H141.392V29.3067Z" fill="#282828"/>
<path d="M152.346 23.4629C148.441 23.4629 145.863 26.5444 145.863 30.6499C145.863 34.7554 148.441 37.6824 153.048 37.6824C155.05 37.7272 157.007 37.0867 158.598 35.8663L157.636 33.9343C156.367 34.9139 154.812 35.4469 153.212 35.4509C150.326 35.4509 148.912 33.8764 148.681 31.5H158.839C158.839 31.2682 158.916 30.9494 158.916 30.6306C158.839 26.5444 156.886 23.4629 152.346 23.4629ZM148.681 29.3845C148.774 28.406 149.214 27.4935 149.92 26.8128C150.626 26.1321 151.552 25.7284 152.529 25.675C154.943 25.675 156.117 27.3269 156.28 29.3845H148.681Z" fill="#282828"/>
<path d="M167.977 35.3957C167.337 35.4039 166.701 35.2787 166.112 35.028C165.522 34.7773 164.99 34.4066 164.55 33.9391C164.11 33.4717 163.771 32.9177 163.554 32.3122C163.338 31.7066 163.249 31.0627 163.293 30.4208C163.255 29.8098 163.345 29.1974 163.558 28.6236C163.771 28.0499 164.102 27.5277 164.529 27.0911C164.957 26.6545 165.471 26.3133 166.039 26.0898C166.606 25.8662 167.214 25.7653 167.823 25.7937C169.328 25.8218 170.791 26.2883 172.036 27.1364L173.133 25.1175C171.558 23.9948 169.677 23.3876 167.746 23.3787C166.797 23.3284 165.848 23.4772 164.96 23.8157C164.071 24.1543 163.263 24.6751 162.586 25.345C161.909 26.0148 161.378 26.819 161.028 27.7063C160.678 28.5936 160.516 29.5444 160.552 30.4981C160.53 31.4476 160.702 32.3915 161.058 33.2717C161.413 34.1518 161.944 34.9496 162.618 35.6157C163.292 36.2818 164.095 36.8022 164.977 37.1449C165.859 37.4875 166.801 37.6451 167.746 37.6079C169.685 37.6505 171.582 37.0382 173.133 35.8691L172.113 33.9371C170.931 34.8653 169.478 35.3778 167.977 35.3957Z" fill="#282828"/>
<path d="M17.3802 48.0884L13.0134 43.6738L8.65625 48.0884L13.023 57.3814L17.3802 48.0884Z" fill="#282828"/>
<path d="M13.0157 24.4594C13.628 24.4651 14.2281 24.2879 14.7398 23.9503C15.2516 23.6126 15.6518 23.1298 15.8896 22.5632C16.1275 21.9965 16.1922 21.3717 16.0755 20.768C15.9589 20.1643 15.6662 19.6091 15.2346 19.1729C14.803 18.7367 14.252 18.4393 13.6517 18.3184C13.0514 18.1974 12.4288 18.2585 11.8631 18.4938C11.2974 18.7291 10.8142 19.128 10.4748 19.6398C10.1354 20.1517 9.95517 20.7533 9.95705 21.3682C9.95578 21.7729 10.0339 22.1738 10.1869 22.5482C10.3399 22.9225 10.5649 23.263 10.8489 23.55C11.1329 23.8371 11.4705 24.0651 11.8423 24.2211C12.214 24.3772 12.6128 24.4581 13.0157 24.4594Z" fill="#282828"/>
<path d="M13.0138 4.48438C12.1 4.94805 0 11.4492 0 21.7564C0 30.5857 7.11765 43.9744 7.11765 43.9744L13.0138 38.0046L18.9099 43.9744C18.9099 43.9744 26.0275 30.576 26.0275 21.7564C26.0275 11.4492 13.9371 4.94805 13.0138 4.48438ZM16.9188 33.986L13.0138 30.0447L9.10867 33.986C8.87783 33.445 6.28085 26.3256 6.28085 21.6019C6.28085 15.3229 12.4751 11.7584 13.0138 11.5265C13.4754 11.7584 19.7467 15.3229 19.7467 21.6019C19.6793 26.3256 17.0727 33.445 16.9188 33.986Z" fill="#282828"/>
<path d="M30.4716 4.5402L26.0279 0L21.5938 4.5402L26.0279 8.9838L30.4716 4.5402Z" fill="#282828"/>
</svg>
