<svg width="213" height="33" viewBox="0 0 213 33" fill="none" xmlns="http://www.w3.org/2000/svg">
<path d="M63.5469 27.5453C63.5469 26.2042 63.8828 24.6229 65.0995 23.9243C65.8327 23.5126 66.9849 23.3006 67.5501 23.1509C67.9227 23.0417 68.2114 22.839 68.2359 22.5271H69.0905C69.0905 23.2975 68.6925 23.6623 67.9969 23.8557C67.5158 23.9866 66.2428 24.205 65.5684 24.5543C64.8231 24.9536 64.4382 25.8205 64.3265 26.9309H64.364C64.7709 25.9047 65.7209 25.3496 66.8479 25.3496C68.4944 25.3496 69.6246 26.5098 69.6246 28.2127C69.6246 29.9156 68.4569 31.2037 66.5935 31.2037C64.9038 31.213 63.5469 30.1994 63.5469 27.5453ZM68.7268 28.2689C68.7309 27.8508 68.6102 27.4411 68.3818 27.0918C68.1535 26.7425 67.8265 26.4694 67.4424 26.3071C67.0591 26.1449 66.6359 26.1008 66.2273 26.1805C65.8188 26.2603 65.4429 26.4602 65.1477 26.7549C64.8525 27.0496 64.651 27.4258 64.5695 27.8357C64.4879 28.2456 64.5287 28.6707 64.6885 29.0569C64.8476 29.4432 65.1175 29.773 65.4641 30.0048C65.8106 30.2366 66.2176 30.3597 66.6343 30.3585C66.9115 30.3717 67.188 30.3268 67.4473 30.2266C67.7066 30.1265 67.9415 29.9732 68.1388 29.7767C68.3354 29.5801 68.4895 29.3445 68.5906 29.0849C68.6917 28.8253 68.7382 28.5474 68.7268 28.2689Z" fill="#282828"/>
<path d="M70.7734 25.4531H71.6525V29.701H71.6737L74.8476 25.4531H75.7136V31.0296H74.8353V26.7818H74.8101L71.677 31.0296H70.7857L70.7734 25.4531Z" fill="#282828"/>
<path d="M76.6562 30.6834L77.0257 29.9224C77.634 30.2423 78.3109 30.4082 78.9975 30.4059C79.8978 30.4059 80.5502 30.1656 80.5502 29.439C80.5502 28.7123 80.0217 28.4878 79.0505 28.4878H78.0034V27.7143H79.0008C79.8423 27.7143 80.3699 27.5209 80.3699 26.9065C80.3699 26.2921 79.8546 26.0863 79.013 26.0863C78.3745 26.1023 77.7433 26.2321 77.1496 26.4699L76.8389 25.687C77.5468 25.4222 78.2945 25.2829 79.0505 25.2754C80.4441 25.2754 81.2833 25.7837 81.2833 26.7256C81.2833 27.4367 80.8046 27.9326 79.963 28.0386V28.0636C80.8951 28.1478 81.4292 28.6312 81.4292 29.5138C81.4292 30.5493 80.6839 31.2136 78.9665 31.2136C78.1641 31.2356 77.369 31.0532 76.6562 30.6834Z" fill="#282828"/>
<path d="M87.552 25.4531V31.0296H86.686V28.4847H83.4534V31.0296H82.5898V25.4531H83.4534V27.6738H86.686V25.4531H87.552Z" fill="#282828"/>
<path d="M94.1853 28.2102V28.3661H89.5705C89.595 29.6136 90.3998 30.3684 91.5676 30.3684C91.9468 30.3655 92.3195 30.2669 92.6506 30.0816C92.9825 29.8963 93.2622 29.6303 93.4644 29.308L94.0858 29.8756C93.8167 30.2967 93.444 30.6411 93.0045 30.8755C92.5641 31.1098 92.0716 31.2263 91.5733 31.2136C89.8192 31.2136 88.6914 30.0191 88.6914 28.257C88.6914 26.4948 89.8192 25.2754 91.5146 25.2754C93.3315 25.2754 94.1853 26.5541 94.1853 28.2102ZM89.608 27.7018H93.2475C93.1635 26.6882 92.5397 26.0863 91.4714 26.0863C91.0115 26.0561 90.5589 26.2086 90.2098 26.5108C89.8616 26.8131 89.6455 27.2408 89.608 27.7018Z" fill="#282828"/>
<path d="M94.9805 28.2445C94.9805 26.4699 96.2224 25.2754 97.9961 25.2754C98.668 25.2735 99.327 25.4662 99.8937 25.8305L99.4738 26.5791C99.0244 26.2903 98.505 26.1317 97.9708 26.1206C97.4106 26.1206 96.8724 26.3444 96.4761 26.7426C96.0789 27.141 95.8563 27.6812 95.8563 28.2445C95.8563 28.8078 96.0789 29.3481 96.4761 29.7463C96.8724 30.1447 97.4106 30.3684 97.9708 30.3684C98.505 30.3574 99.0244 30.1987 99.4738 29.91L99.8937 30.6585C99.327 31.0227 98.668 31.2155 97.9961 31.2137C96.2045 31.2137 94.9805 30.0191 94.9805 28.2445Z" fill="#282828"/>
<path d="M69.4956 3.66797C72.6792 3.66797 75.2594 6.01646 75.2594 9.21318C75.2496 10.6957 74.6567 12.1139 73.6088 13.1586C72.5618 14.2034 71.1461 14.7897 69.6701 14.7897C68.2756 14.7897 66.9244 14.3936 65.9091 13.2303H65.7884V21.3049H63.6641V10.0958C63.6641 6.18173 65.9091 3.66797 69.4956 3.66797ZM69.4646 12.9152C71.5734 12.9152 73.0143 11.2405 73.0143 9.21318C73.0143 7.18599 71.6044 5.54234 69.4646 5.54234C68.9851 5.53153 68.5088 5.61891 68.0644 5.79917C67.6191 5.97944 67.2155 6.24881 66.8779 6.5909C66.5403 6.93292 66.276 7.34045 66.0999 7.78861C65.9246 8.23677 65.8414 8.71621 65.8561 9.19762C65.8659 11.2405 67.35 12.9152 69.4743 12.9152H69.4646Z" fill="#282828"/>
<path d="M77.2383 9.21735C77.2383 6.01743 79.909 3.65649 83.0486 3.65649C86.1882 3.65649 88.8556 6.01743 88.8556 9.21735C88.8556 12.4173 86.1882 14.7782 83.0486 14.7782C79.909 14.7782 77.2383 12.4297 77.2383 9.21735ZM83.0486 12.9038C85.1729 12.9038 86.6138 11.2571 86.6138 9.21735C86.6138 7.17763 85.1729 5.53086 83.0486 5.53086C80.9251 5.53086 79.4841 7.16198 79.4841 9.21735C79.4841 11.2726 80.9251 12.9163 83.0486 12.9163V12.9038Z" fill="#282828"/>
<path d="M96.7019 14.7897C93.3665 14.7897 90.832 12.4443 90.832 9.22883C90.832 6.01334 93.3168 3.66797 96.6268 3.66797C99.1736 3.66797 101.556 5.05585 102.161 7.69123H99.9874C99.4565 6.27526 98.1828 5.54234 96.6953 5.54234C94.4536 5.54234 93.0868 7.21719 93.0868 9.26003C93.0868 11.3029 94.4968 12.9152 96.7418 12.9152C98.1982 12.9152 99.5185 12.2447 100.034 10.7071H102.232C101.434 13.5079 99.1581 14.7897 96.7019 14.7897Z" fill="#282828"/>
<path d="M110.092 13.2507L106.602 5.92454H106.543V14.5606H104.496V3.91602H107.757L111.213 11.2109H111.275L114.732 3.91602H117.992V14.5762H115.946V5.92454H115.883L112.396 13.2507H110.092Z" fill="#282828"/>
<path d="M120.27 9.21735C120.27 6.01743 122.937 3.65649 126.077 3.65649C129.216 3.65649 131.887 6.02988 131.887 9.21735C131.887 12.4047 129.216 14.7782 126.077 14.7782C122.937 14.7782 120.27 12.4297 120.27 9.21735ZM126.077 12.9038C128.201 12.9038 129.642 11.2571 129.642 9.21735C129.642 7.17763 128.201 5.53086 126.077 5.53086C123.952 5.53086 122.511 7.16198 122.511 9.21735C122.511 11.2726 123.952 12.9163 126.077 12.9163V12.9038Z" fill="#282828"/>
<path d="M132.965 14.654V12.4458H133.012C133.24 12.4438 133.465 12.3954 133.674 12.3037C133.881 12.2121 134.07 12.0791 134.226 11.9125C134.62 11.4697 134.816 10.665 135.03 9.52035L135.341 7.81437C135.692 5.8495 136.387 3.85352 139.331 3.85352H143.471V14.5604H141.346V5.82772H139.685C138.033 5.82772 137.682 6.28308 137.288 8.55352L137.015 10.1535C136.772 11.6163 136.394 12.8794 135.651 13.6872C135.332 14.0114 134.948 14.2645 134.525 14.43C134.102 14.5955 133.648 14.6697 133.195 14.6477L132.965 14.654Z" fill="#282828"/>
<path d="M145.809 9.21735C145.809 6.01743 148.479 3.65649 151.619 3.65649C154.758 3.65649 157.426 6.01743 157.426 9.21735C157.426 12.4173 154.755 14.7782 151.619 14.7782C148.483 14.7782 145.809 12.4297 145.809 9.21735ZM151.619 12.9038C153.74 12.9038 155.181 11.2571 155.181 9.21735C155.181 7.17763 153.74 5.53086 151.619 5.53086C149.498 5.53086 148.067 7.17452 148.067 9.21735C148.067 11.2602 149.495 12.9163 151.619 12.9163V12.9038Z" fill="#282828"/>
<path d="M159.883 17.1521H157.836V12.58H159.215C159.836 11.8969 160.147 10.874 160.429 9.64205L160.886 7.66154C161.324 5.75909 162.128 3.85352 164.768 3.85352H168.891V12.5862H170.425V17.1584H168.376V14.5666H159.883V17.1521ZM166.799 12.6267V5.80274H164.811C163.522 5.80274 163.084 6.8382 162.827 7.93599L162.351 9.99136C162.094 11.1328 161.7 12.0778 161.305 12.4864V12.6392L166.799 12.6267Z" fill="#282828"/>
<path d="M177.837 14.7926C174.456 14.7926 171.996 12.4472 171.996 9.2317C171.996 6.01622 174.48 3.67085 177.759 3.67085C180.309 3.67085 183.371 5.34873 183.371 9.40009V9.843H174.12C174.346 11.627 175.729 12.9213 177.822 12.9213C179.064 12.9213 180.551 12.4628 180.961 11.3837H183.135C182.477 13.7259 180.005 14.7926 177.837 14.7926ZM174.148 0H176.347V2.21122H174.148V0ZM181.154 8.2118C180.821 6.59632 179.576 5.51409 177.738 5.51409C176.931 5.48821 176.141 5.74251 175.5 6.23407C174.859 6.72556 174.407 7.42408 174.219 8.2118H181.154ZM178.924 0H181.123V2.21122H178.924V0Z" fill="#282828"/>
<path d="M193.385 3.91595V8.13266H195.161L197.664 3.91595H199.999L196.894 9.00277L200.26 14.5762H197.878L195.195 10.085H193.388V14.5762H191.388V10.0694H189.584L186.898 14.5605H184.516L187.885 8.98721L184.78 3.90039H187.118L189.603 8.13266H191.379V3.91595H193.385Z" fill="#282828"/>
<path d="M201.739 9.76379L201.711 3.90039H203.832L203.848 6.93184H203.909C204.31 6.41292 204.826 5.99523 205.416 5.71202C206.006 5.42881 206.654 5.28794 207.307 5.30072C209.915 5.30072 212.024 7.25003 212.024 9.97894C212.024 12.7079 209.869 14.7944 206.913 14.7944C203.956 14.7944 201.754 12.6736 201.739 9.76379ZM206.866 12.9169C208.55 12.9169 209.779 11.7287 209.779 10.0694C209.793 9.4895 209.635 8.91841 209.324 8.42914C209.014 7.93987 208.566 7.55461 208.037 7.32242C207.507 7.09024 206.921 7.02177 206.353 7.1257C205.784 7.22955 205.26 7.50121 204.846 7.9058C204.432 8.31047 204.148 8.82971 204.029 9.39745C203.909 9.96518 203.962 10.5556 204.179 11.0933C204.395 11.631 204.767 12.0916 205.246 12.4165C205.724 12.7413 206.288 12.9155 206.866 12.9169Z" fill="#282828"/>
<path d="M26.6409 32.3437L5.67655 19.8154V31.3145H0V9.78832L26.057 25.3607L52.8259 2.52148V31.3145H47.1493V14.8439L26.6409 32.3437Z" fill="#282828"/>
</svg>
