<svg width="196" height="31" viewBox="0 0 196 31" fill="none" xmlns="http://www.w3.org/2000/svg">
<path d="M104.535 5.67188L107.547 9.63705L110.57 5.67188H111.869V14.0481H110.437V8.04449L107.559 11.8415L104.657 8.03233V14.0481H103.237V5.67188H104.535ZM114.653 14.0481V5.67188H116.086V11.6896L120.929 5.67188H122.168V14.0481H120.748V8.02016L115.891 14.0481H114.653ZM127.698 11.1465H126.377V14.0481H124.955V5.67188H127.698C129.471 5.67188 130.686 6.86325 130.686 8.40918C130.686 9.95518 129.471 11.1465 127.698 11.1465ZM127.68 6.97065H126.369V9.84781H127.68C128.7 9.84781 129.282 9.2237 129.282 8.40918C129.282 7.59467 128.708 6.97065 127.68 6.97065ZM103.227 25.8363V17.4601H104.659V23.4758L109.502 17.4601H110.741V25.8363H109.331V19.8064L104.465 25.8363H103.227ZM113.529 17.4601H114.961V20.9288H119.222V17.4601H120.644V25.8363H119.222V22.2378H114.961V25.8363H113.54L113.529 17.4601ZM123.425 17.4601H126.4C127.941 17.4601 128.973 18.5096 128.973 19.772C128.987 20.0853 128.922 20.397 128.782 20.6797C128.643 20.9624 128.433 21.2073 128.173 21.3929C128.59 21.5409 128.95 21.8135 129.198 22.1716C129.446 22.5296 129.573 22.9549 129.557 23.3866C129.557 24.7665 128.415 25.8403 126.776 25.8403H123.425V17.4601ZM126.328 20.9876C127.104 20.9876 127.579 20.5034 127.579 19.855C127.579 19.2472 127.104 18.7225 126.328 18.7225H124.845V20.9876H126.328ZM126.745 24.574C127.666 24.574 128.177 24.0776 128.177 23.3705C128.177 22.6633 127.666 22.1669 126.745 22.1669H124.845V24.574H126.745ZM131.813 17.4601H136.999V18.7812H133.235V20.9288H136.268V22.25H133.235V24.5152H136.999V25.8363H131.813V17.4601ZM138.596 21.6481C138.596 19.1944 140.515 17.3182 143.089 17.3182C145.174 17.3182 146.816 18.6271 147.241 20.2684H145.71C145.348 19.312 144.303 18.6473 143.089 18.6473C141.292 18.6473 140.029 19.9563 140.029 21.644C140.029 23.3319 141.292 24.6408 143.089 24.6408C144.303 24.6408 145.348 23.9802 145.71 23.0198H147.241C146.824 24.659 145.156 25.9699 143.089 25.9699C140.515 25.9781 138.596 24.1018 138.596 21.6481ZM151.098 18.7812H148.595V17.4601H155.03V18.7812H152.529V25.8363H151.109L151.098 18.7812ZM157.05 25.8363V17.4601H158.481V23.4758L163.335 17.4601H164.574V25.8363H163.152V19.8064L158.287 25.8363H157.05ZM175.173 24.5152V27.5789H173.861V25.8363H167.354V17.4601H168.785V24.5152H172.647V17.4601H174.08V24.5152H175.173ZM177.325 25.8363V17.4601H178.766V23.4758L183.609 17.4601H184.848V25.8363H183.427V19.8064L178.557 25.8363H177.325ZM187.627 25.8362V17.4601H189.059V23.4758L193.904 17.4601H195.143V25.8362H193.722V19.8064L188.865 25.8362H187.627ZM189.485 14.97H190.418C190.418 15.6792 190.836 16.1147 191.502 16.1147C192.165 16.1147 192.58 15.6792 192.58 14.97H193.515C193.524 15.2324 193.478 15.4939 193.381 15.7388C193.284 15.9838 193.136 16.2073 192.948 16.3959C192.76 16.5846 192.535 16.7346 192.287 16.837C192.038 16.9395 191.77 16.9923 191.499 16.9923C191.229 16.9923 190.962 16.9395 190.713 16.837C190.464 16.7346 190.24 16.5846 190.052 16.3959C189.863 16.2073 189.716 15.9838 189.619 15.7388C189.521 15.4939 189.475 15.2324 189.485 14.97Z" fill="#1B1A1A"/>
<path d="M51.1018 13.9031C51.9098 14.1873 52.656 14.6143 53.3023 15.162C53.916 15.735 54.4166 16.411 54.7795 17.1571C55.1349 17.9516 55.3124 18.8097 55.3002 19.675C55.3125 20.5307 55.1349 21.379 54.7795 22.163C54.4196 22.9108 53.909 23.582 53.2776 24.1373C52.6461 24.6925 51.9065 25.1208 51.1018 25.3972C50.2021 25.7167 49.2505 25.8783 48.2918 25.874H38.1758V6.0162H53.5317V9.8768H42.4032V13.456H48.2898C49.2471 13.4428 50.1993 13.5942 51.1018 13.9031ZM50.4035 17.8156C49.7777 17.3663 49.0109 17.1388 48.2319 17.171H42.4032V22.1251H48.2319C49.0106 22.157 49.777 21.9303 50.4035 21.4827C50.9551 21.0636 51.2155 20.4851 51.2155 19.665C51.2155 18.845 50.9551 18.2385 50.4035 17.8156ZM63.1393 25.874H59.0937V6.0162H63.1393V14.4357L70.3316 6.0162H75.3608L67.158 15.553L77.0756 25.874H71.7945L63.1393 16.8679V25.874ZM83.2846 25.3972C80.7343 24.38 78.7044 22.4299 77.6376 19.9724C77.0887 18.6961 76.8124 17.3259 76.8255 15.9442C76.811 14.5907 77.0749 13.2478 77.6019 11.9938C78.1293 10.7395 78.9088 9.59885 79.896 8.63791C80.8674 7.70451 82.0185 6.96369 83.2846 6.45718C84.6537 5.9182 86.1218 5.65152 87.6011 5.67309C88.7411 5.66962 89.875 5.83929 90.9604 6.17586C92.0109 6.52896 93.0052 7.02187 93.9148 7.64029C94.7808 8.27193 95.5421 9.02677 96.1736 9.87886C96.8154 10.7594 97.2859 11.745 97.564 12.7878H93.018C92.8206 12.2908 92.5259 11.835 92.1503 11.4451C91.7685 11.0481 91.3287 10.7073 90.8447 10.4335C90.359 10.1721 89.844 9.96596 89.3093 9.81898C88.7522 9.67444 88.1779 9.59931 87.6011 9.59556C86.6892 9.5861 85.7836 9.74735 84.935 10.0704C84.1498 10.3838 83.4407 10.8504 82.8505 11.4411C82.2784 12.0244 81.8261 12.7075 81.5178 13.4542C81.2002 14.2477 81.0449 15.0934 81.0615 15.9442C81.0472 16.7952 81.2041 17.6408 81.5242 18.434C81.8324 19.1807 82.284 19.8638 82.8568 20.4472C83.4399 21.0382 84.1522 21.4967 84.9413 21.7899C85.7835 22.1356 86.6915 22.307 87.6066 22.2927C88.1842 22.2889 88.7585 22.2139 89.3156 22.0692C89.8559 21.9248 90.3725 21.7086 90.851 21.4268C91.339 21.1733 91.7804 20.8421 92.1543 20.4472C92.5299 20.0573 92.8246 19.6015 93.0226 19.1045H97.568C97.2899 20.1384 96.8185 21.1149 96.1776 21.9854C95.554 22.8438 94.7911 23.5996 93.9188 24.224C93.0226 24.8604 92.0244 25.3515 90.9643 25.6785C89.8836 26.0376 88.7474 26.2171 87.6049 26.2092C86.1227 26.2222 84.653 25.946 83.2846 25.3972Z" fill="#1B1A1A"/>
<mask id="mask0_205_208" style="mask-type:alpha" maskUnits="userSpaceOnUse" x="0" y="0" width="32" height="31">
<path d="M15.5551 30.3196C24.146 30.3196 31.1102 23.5765 31.1102 15.2585C31.1102 6.94056 24.146 0.19751 15.5551 0.19751C6.96426 0.19751 0 6.94056 0 15.2585C0 23.5765 6.96426 30.3196 15.5551 30.3196Z" fill="white"/>
</mask>
<g mask="url(#mask0_205_208)">
<path d="M29.4701 22.8329C33.7742 15.449 30.9545 6.01573 23.1721 1.76298C15.3899 -2.48977 5.59192 0.0484299 1.28786 7.43225C-3.01619 14.816 -0.196501 24.2493 7.58581 28.5021C15.3682 32.7548 25.166 30.2166 29.4701 22.8329Z" fill="url(#paint0_linear_205_208)"/>
</g>
<mask id="mask1_205_208" style="mask-type:alpha" maskUnits="userSpaceOnUse" x="0" y="0" width="32" height="31">
<path d="M15.5551 30.3196C24.146 30.3196 31.1102 23.5765 31.1102 15.2585C31.1102 6.94056 24.146 0.19751 15.5551 0.19751C6.96426 0.19751 0 6.94056 0 15.2585C0 23.5765 6.96426 30.3196 15.5551 30.3196Z" fill="white"/>
</mask>
<g mask="url(#mask1_205_208)">
<path d="M29.8245 21.3189C33.9314 15.8598 31.8376 7.60934 25.1479 2.89133C18.4581 -1.8267 9.70554 -1.22581 5.59861 4.23346C1.49165 9.69276 3.58545 17.9431 10.2752 22.6612C16.965 27.3791 25.7175 26.7782 29.8245 21.3189Z" fill="#1B1A1A"/>
</g>
<mask id="mask2_205_208" style="mask-type:alpha" maskUnits="userSpaceOnUse" x="0" y="0" width="32" height="31">
<path d="M16.1371 30.1221C24.728 30.1221 31.6923 23.379 31.6923 15.061C31.6923 6.74305 24.728 0 16.1371 0C7.54629 0 0.582031 6.74305 0.582031 15.061C0.582031 23.379 7.54629 30.1221 16.1371 30.1221Z" fill="white"/>
</mask>
<g mask="url(#mask2_205_208)">
<path d="M30.4014 14.5571C32.4288 10.6072 29.1397 4.84926 23.0554 1.69648C16.9711 -1.45628 10.3953 -0.80998 8.36811 3.14004C6.34085 7.09003 9.62979 12.848 15.7141 16.0008C21.7984 19.1536 28.3742 18.5072 30.4014 14.5571Z" fill="#292929"/>
</g>
<defs>
<linearGradient id="paint0_linear_205_208" x1="24.0809" y1="49.7437" x2="15.4899" y2="-5.54247" gradientUnits="userSpaceOnUse">
<stop/>
<stop offset="0.11"/>
<stop offset="0.23"/>
<stop offset="0.37"/>
<stop offset="0.5"/>
<stop offset="0.64"/>
<stop offset="0.78"/>
<stop offset="0.92"/>
<stop offset="1"/>
</linearGradient>
</defs>
</svg>
