<svg width="116" height="46" viewBox="0 0 116 46" fill="none" xmlns="http://www.w3.org/2000/svg">
<path fill-rule="evenodd" clip-rule="evenodd" d="M83.4303 5.51457H33.1536V1.76953H115.712V5.51457H83.4303Z" fill="#FF66C3"/>
<path fill-rule="evenodd" clip-rule="evenodd" d="M77.9476 31.2993V14.5085H79.9674V29.4874H85.5619V31.2993H77.9476Z" fill="#FF66C3" stroke="#FF66C3"/>
<path fill-rule="evenodd" clip-rule="evenodd" d="M74.6193 16.2978L67.5725 16.2979V21.2755H74.1423V23.0417H67.5725V29.4874H74.6193V31.2993H65.5521V14.5085H74.6193V16.2978Z" fill="#FF66C3" stroke="#FF66C3"/>
<path fill-rule="evenodd" clip-rule="evenodd" d="M56.6854 31.8958L49.7481 14.5085H51.9493L55.1066 22.8274L56.6854 26.9868L59.0475 20.7477L61.4096 14.5085H63.611L56.6854 31.8958Z" fill="#FF66C3" stroke="#FF66C3"/>
<path fill-rule="evenodd" clip-rule="evenodd" d="M48.534 16.2978L41.4871 16.2979V21.2755H48.0571V23.0417H41.4871V29.4874H48.534V31.2993H39.4672V14.5085H48.534V16.2978Z" fill="#FF66C3" stroke="#FF66C3"/>
<path fill-rule="evenodd" clip-rule="evenodd" d="M28.8544 31.2993H28.6274V14.5085H28.8544H30.6473H30.8742V29.4874H36.2417H36.4687V31.2993H36.2417H28.8544Z" fill="#FF66C3" stroke="#FF66C3"/>
<path fill-rule="evenodd" clip-rule="evenodd" d="M31.5679 43.9726L0 44.0847V40.3396L81.8445 40.2275V43.9726H31.5679Z" fill="#FF66C3"/>
</svg>